<svg width="75" height="75" viewBox="0 0 75 75" fill="none" xmlns="http://www.w3.org/2000/svg">
<g clip-path="url(#clip0_105805_1667)">
<path d="M54.5384 13.1372L45.1598 22.6098C42.4297 21.1147 39.3131 20.4285 36.1748 20.6705C33.163 20.9016 30.2956 21.9742 27.8832 23.7329C25.6912 23.0864 23.4088 22.7542 21.1337 22.7542H21.0398C17.3273 22.7759 13.7341 23.6426 10.4658 25.2857C11.867 22.0103 13.8569 19.0165 16.3378 16.4416C19.8155 12.8411 24.1419 10.1904 28.9125 8.74588C33.683 7.30135 38.7425 7.10995 43.607 8.18612C47.5614 9.06006 51.2774 10.7502 54.5384 13.1372Z" fill="white"/>
<path d="M74.0498 53.3963C72.6992 57.7841 69.9871 61.6121 66.3144 64.3206C62.6417 67.0291 58.2034 68.4736 53.6567 68.4375H40.2334V55.2742H53.6567C54.7256 55.2742 55.7838 55.0611 56.7733 54.6458C57.7592 54.2341 58.6584 53.6274 59.4131 52.8654C60.1679 52.1035 60.771 51.197 61.1791 50.1967C61.5872 49.1999 61.8002 48.131 61.8002 47.0512C61.8002 45.9714 61.5872 44.9025 61.1791 43.9057C60.771 42.909 60.1679 42.0026 59.4131 41.237C58.6584 40.475 57.7592 39.8683 56.7733 39.4566C55.7838 39.0413 54.7256 38.8282 53.6567 38.8282V37.1887C53.7 34.7041 53.1872 32.2412 52.1544 29.9841C51.6994 28.9874 51.1468 28.0448 50.5076 27.1672C49.7348 26.1019 48.8284 25.1305 47.8172 24.2782C47.7738 24.2421 47.7269 24.2024 47.6836 24.1662L56.7047 15.0585L56.8347 14.9285C57.723 15.723 58.5573 16.568 59.3373 17.46C62.3203 20.8619 64.4979 24.921 65.686 29.3377C69.4562 31.9089 72.302 35.6394 73.8079 39.973C75.3138 44.3066 75.3969 49.0122 74.0498 53.3963Z" fill="white"/>
<path d="M37.9408 34.0252L28.4935 43.5627C27.9482 42.3529 27.1248 41.2912 26.0848 40.4714C25.0483 39.6517 23.8277 39.0991 22.5349 38.8608C21.2384 38.6224 19.9022 38.7055 18.6455 39.1027C17.3887 39.4964 16.2439 40.197 15.3122 41.1359C14.3805 42.0749 13.6907 43.2305 13.2971 44.5017C12.9034 45.7692 12.824 47.1163 13.0587 48.4272C13.2971 49.7345 13.8424 50.9659 14.6549 52.0132C14.7308 52.1071 14.8066 52.2046 14.8861 52.2949C15.6625 53.2122 16.6267 53.9453 17.7173 54.4436H17.7137L8.29178 63.9595L8.27012 63.9811C7.40701 63.3094 6.59807 62.5727 5.85414 61.7818C3.58262 59.3767 1.88529 56.4588 0.917458 53.2483C-0.364563 48.9869 -0.299559 44.4258 1.10886 40.2042C1.96474 37.6365 3.29371 35.2711 5.0127 33.2235C6.11054 31.9054 7.37451 30.7245 8.7757 29.6988C9.01766 29.5219 9.26323 29.3485 9.51241 29.1824H9.51602C12.9359 26.9001 16.9445 25.6686 21.0578 25.6433C22.4482 25.6397 23.8313 25.7733 25.1892 26.0406H25.1928C26.3087 26.2609 27.4065 26.5714 28.4755 26.9723C29.1544 27.2251 29.8225 27.514 30.4725 27.8354C33.4013 29.2908 35.9581 31.4106 37.9408 34.0252Z" fill="white"/>
<path d="M37.3446 55.1803V68.3436H21.0576C17.4101 68.3616 13.8421 67.4227 10.6895 65.6423L21.054 55.1803H37.3446Z" fill="white"/>
</g>
<defs>
<clipPath id="clip0_105805_1667">
<rect width="75" height="60.9375" fill="white" transform="translate(0 7.5)"/>
</clipPath>
</defs>
</svg>
