<svg width="75" height="75" viewBox="0 0 75 75" fill="none" xmlns="http://www.w3.org/2000/svg">
<path d="M74.2711 30.4272C74.062 30.2526 72.1835 28.8225 68.1486 28.8225C67.1048 28.8225 66.0266 28.927 64.9828 29.1017C64.2182 23.7623 59.7996 21.18 59.6263 21.0397L58.5481 20.4113L57.8522 21.4234C56.9831 22.7847 56.3216 24.3206 55.9393 25.8909C55.209 28.927 55.6615 31.7885 57.1921 34.232C55.3479 35.2784 52.3568 35.5231 51.731 35.5575H2.3356C1.04839 35.5575 0.00460235 36.604 0.00460235 37.8965C-0.0655128 42.2238 0.666066 46.5511 2.16097 50.6349C3.8649 55.1025 6.40492 58.4177 9.67388 60.4418C13.3609 62.7106 19.3789 64.0018 26.1615 64.0018C29.2228 64.0018 32.284 63.7227 35.3096 63.1644C39.5178 62.3971 43.554 60.9313 47.2754 58.8027C50.3367 57.0234 53.0844 54.7545 55.4154 52.1021C59.3458 47.6703 61.6768 42.7146 63.3807 38.3172H64.0766C68.3549 38.3172 70.9995 36.6066 72.46 35.1408C73.4337 34.2333 74.1639 33.1167 74.6865 31.86L75 30.9524L74.2697 30.4285L74.2711 30.4272Z" fill="white"/>
<path d="M6.95756 34.154H13.5669C13.8804 34.154 14.1582 33.9093 14.1582 33.56V27.6174C14.1582 27.3026 13.9148 27.0234 13.5669 27.0234H6.95756C6.64403 27.0234 6.36621 27.2682 6.36621 27.6174V33.56C6.40061 33.9093 6.64403 34.154 6.95756 34.154ZM16.0699 34.154H22.6792C22.9928 34.154 23.2706 33.9093 23.2706 33.56V27.6174C23.2706 27.3026 23.0272 27.0234 22.6792 27.0234H16.0699C15.7563 27.0234 15.4785 27.2682 15.4785 27.6174V33.56C15.5129 33.9093 15.7563 34.154 16.0699 34.154ZM25.3581 34.154H31.9675C32.281 34.154 32.5588 33.9093 32.5588 33.56V27.6174C32.5588 27.3026 32.3154 27.0234 31.9675 27.0234H25.3581C25.0446 27.0234 24.7668 27.2682 24.7668 27.6174V33.56C24.7668 33.9093 25.0102 34.154 25.3581 34.154ZM34.5062 34.154H41.1155C41.4291 34.154 41.7069 33.9093 41.7069 33.56V27.6174C41.7069 27.3026 41.4635 27.0234 41.1155 27.0234H34.5062C34.1927 27.0234 33.9148 27.2682 33.9148 27.6174V33.56C33.9148 33.9093 34.1927 34.154 34.5062 34.154ZM16.0699 25.6608H22.6792C22.9928 25.6608 23.2706 25.3817 23.2706 25.0668V19.1242C23.2706 18.8094 23.0272 18.5302 22.6792 18.5302H16.0699C15.7563 18.5302 15.4785 18.775 15.4785 19.1242V25.0668C15.5129 25.3817 15.7563 25.6608 16.0699 25.6608ZM25.3581 25.6608H31.9675C32.281 25.6608 32.5588 25.3817 32.5588 25.0668V19.1242C32.5588 18.8094 32.3154 18.5302 31.9675 18.5302H25.3581C25.0446 18.5302 24.7668 18.775 24.7668 19.1242V25.0668C24.7668 25.3817 25.0102 25.6608 25.3581 25.6608ZM34.5062 25.6608H41.1155C41.4291 25.6608 41.7069 25.3817 41.7069 25.0668V19.1242C41.7069 18.8094 41.4291 18.5302 41.1155 18.5302H34.5062C34.1927 18.5302 33.9148 18.775 33.9148 19.1242V25.0668C33.9148 25.3817 34.1927 25.6608 34.5062 25.6608ZM34.5062 17.1306H41.1155C41.4291 17.1306 41.7069 16.8858 41.7069 16.5366V10.594C41.7069 10.2791 41.4291 10 41.1155 10H34.5062C34.1927 10 33.9148 10.2447 33.9148 10.594V16.5366C33.9148 16.8514 34.1927 17.1306 34.5062 17.1306ZM43.723 34.154H50.3324C50.6459 34.154 50.9237 33.9093 50.9237 33.56V27.6174C50.9237 27.3026 50.6803 27.0234 50.3324 27.0234H43.723C43.4095 27.0234 43.1317 27.2682 43.1317 27.6174V33.56C43.1661 33.9093 43.4095 34.154 43.723 34.154Z" fill="white"/>
</svg>
