<svg width="197" height="189" viewBox="0 0 197 189" fill="none" xmlns="http://www.w3.org/2000/svg">
<g clip-path="url(#clip0_188130_2381)">
<path d="M63.1512 144.675L38.8008 158.369C38.3626 158.624 37.8211 158.624 37.37 158.369L13.0196 144.675C12.0657 144.141 12.0657 142.779 13.0196 142.232L37.37 128.537C37.8083 128.283 38.3497 128.283 38.8008 128.537L63.1512 142.232C64.1051 142.766 64.1051 144.128 63.1512 144.675Z" fill="white"/>
<path d="M58.936 149.282V160.571C58.936 161.08 58.6653 161.538 58.2141 161.793L38.8008 172.713C38.3626 172.967 37.8212 172.967 37.37 172.713L17.9567 161.793C17.5056 161.538 17.2349 161.08 17.2349 160.571V149.282L27.9985 155.328L37.37 160.609C37.8083 160.864 38.3497 160.864 38.8008 160.609L48.1723 155.328L58.936 149.282Z" fill="white"/>
<path d="M70.2795 130.65L70.9498 130.192C71.7619 129.632 71.6588 128.423 70.7693 128.003L65.4326 125.496C64.5303 125.076 63.5119 125.776 63.5893 126.756L64.1049 132.572C64.1951 133.539 65.3166 134.061 66.1287 133.501L67.0826 132.852C75.5647 146.342 73.283 164.313 61.4237 175.258C49.7577 186.025 31.7753 187.336 18.6655 178.376C17.789 177.778 16.5773 177.994 15.9714 178.86C15.3655 179.725 15.5847 180.922 16.4612 181.52C22.9452 185.949 30.4862 188.125 38.0143 188.125C47.4374 188.125 56.8346 184.714 64.0662 178.045C77.3049 165.815 79.8572 145.693 70.2795 130.65Z" fill="white"/>
<path d="M59.7093 119.73C45.1171 109.752 25.098 111.216 12.1043 123.205C-1.46953 135.741 -3.90586 155.773 6.21327 171.071L5.27225 171.707C4.46014 172.267 4.56327 173.476 5.45272 173.896L10.7894 176.404C11.6918 176.824 12.7101 176.124 12.6328 175.144L12.1172 169.327C12.0269 168.36 10.9054 167.838 10.0933 168.398L9.39724 168.882C0.399604 155.15 2.57812 137.217 14.7468 125.992C26.4128 115.225 44.3952 113.901 57.505 122.874C58.3815 123.472 59.5933 123.256 60.1991 122.39C60.805 121.525 60.5858 120.329 59.7093 119.73Z" fill="white"/>
</g>
<g filter="url(#filter0_d_188130_2381)">
<rect x="23.25" width="169" height="112" rx="20" fill="url(#paint0_linear_188130_2381)"/>
<path d="M63.1028 124.205L54.7129 112H78.0852L69.6953 124.205C68.106 126.517 64.6921 126.517 63.1028 124.205Z" fill="black"/>
</g>
<path d="M49.4458 11.848V23H47.9898V11.848H49.4458ZM60.5449 14.072C61.2063 14.072 61.8036 14.216 62.3369 14.504C62.8703 14.7813 63.2863 15.2027 63.5849 15.768C63.8943 16.3333 64.0489 17.0213 64.0489 17.832V23H62.6089V18.04C62.6089 17.1653 62.3903 16.4987 61.9529 16.04C61.5156 15.5707 60.9183 15.336 60.1609 15.336C59.3929 15.336 58.7796 15.576 58.3209 16.056C57.8729 16.536 57.6489 17.2347 57.6489 18.152V23H56.1929V11.16H57.6489V15.48C57.9369 15.032 58.3316 14.6853 58.8329 14.44C59.3449 14.1947 59.9156 14.072 60.5449 14.072ZM65.8833 18.584C65.8833 17.688 66.0646 16.904 66.4273 16.232C66.79 15.5493 67.286 15.0213 67.9153 14.648C68.5553 14.2747 69.2646 14.088 70.0433 14.088C70.8113 14.088 71.478 14.2533 72.0433 14.584C72.6086 14.9147 73.03 15.3307 73.3073 15.832V14.232H74.7793V23H73.3073V21.368C73.0193 21.88 72.5873 22.3067 72.0113 22.648C71.446 22.9787 70.7846 23.144 70.0273 23.144C69.2486 23.144 68.5446 22.952 67.9153 22.568C67.286 22.184 66.79 21.6453 66.4273 20.952C66.0646 20.2587 65.8833 19.4693 65.8833 18.584ZM73.3073 18.6C73.3073 17.9387 73.174 17.3627 72.9073 16.872C72.6406 16.3813 72.278 16.008 71.8193 15.752C71.3713 15.4853 70.8753 15.352 70.3313 15.352C69.7873 15.352 69.2913 15.48 68.8433 15.736C68.3953 15.992 68.038 16.3653 67.7713 16.856C67.5046 17.3467 67.3713 17.9227 67.3713 18.584C67.3713 19.256 67.5046 19.8427 67.7713 20.344C68.038 20.8347 68.3953 21.2133 68.8433 21.48C69.2913 21.736 69.7873 21.864 70.3313 21.864C70.8753 21.864 71.3713 21.736 71.8193 21.48C72.278 21.2133 72.6406 20.8347 72.9073 20.344C73.174 19.8427 73.3073 19.2613 73.3073 18.6ZM80.5038 21.656L83.2238 14.232H84.7758L81.3358 23H79.6398L76.1998 14.232H77.7678L80.5038 21.656ZM94.2086 18.28C94.2086 18.5573 94.1926 18.8507 94.1606 19.16H87.1526C87.2059 20.024 87.4992 20.7013 88.0326 21.192C88.5766 21.672 89.2326 21.912 90.0006 21.912C90.6299 21.912 91.1526 21.768 91.5686 21.48C91.9952 21.1813 92.2939 20.7867 92.4646 20.296H94.0326C93.7979 21.1387 93.3286 21.8267 92.6246 22.36C91.9206 22.8827 91.0459 23.144 90.0006 23.144C89.1686 23.144 88.4219 22.9573 87.7606 22.584C87.1099 22.2107 86.5979 21.6827 86.2246 21C85.8512 20.3067 85.6646 19.5067 85.6646 18.6C85.6646 17.6933 85.8459 16.8987 86.2086 16.216C86.5712 15.5333 87.0779 15.0107 87.7286 14.648C88.3899 14.2747 89.1472 14.088 90.0006 14.088C90.8326 14.088 91.5686 14.2693 92.2086 14.632C92.8486 14.9947 93.3392 15.496 93.6806 16.136C94.0326 16.7653 94.2086 17.48 94.2086 18.28ZM92.7046 17.976C92.7046 17.4213 92.5819 16.9467 92.3366 16.552C92.0912 16.1467 91.7552 15.8427 91.3286 15.64C90.9126 15.4267 90.4486 15.32 89.9366 15.32C89.2006 15.32 88.5712 15.5547 88.0486 16.024C87.5366 16.4933 87.2432 17.144 87.1686 17.976H92.7046ZM99.8521 18.584C99.8521 17.688 100.033 16.904 100.396 16.232C100.759 15.5493 101.255 15.0213 101.884 14.648C102.524 14.2747 103.233 14.088 104.012 14.088C104.78 14.088 105.447 14.2533 106.012 14.584C106.577 14.9147 106.999 15.3307 107.276 15.832V14.232H108.748V23H107.276V21.368C106.988 21.88 106.556 22.3067 105.98 22.648C105.415 22.9787 104.753 23.144 103.996 23.144C103.217 23.144 102.513 22.952 101.884 22.568C101.255 22.184 100.759 21.6453 100.396 20.952C100.033 20.2587 99.8521 19.4693 99.8521 18.584ZM107.276 18.6C107.276 17.9387 107.143 17.3627 106.876 16.872C106.609 16.3813 106.247 16.008 105.788 15.752C105.34 15.4853 104.844 15.352 104.3 15.352C103.756 15.352 103.26 15.48 102.812 15.736C102.364 15.992 102.007 16.3653 101.74 16.856C101.473 17.3467 101.34 17.9227 101.34 18.584C101.34 19.256 101.473 19.8427 101.74 20.344C102.007 20.8347 102.364 21.2133 102.812 21.48C103.26 21.736 103.756 21.864 104.3 21.864C104.844 21.864 105.34 21.736 105.788 21.48C106.247 21.2133 106.609 20.8347 106.876 20.344C107.143 19.8427 107.276 19.2613 107.276 18.6ZM118.578 23.144C117.906 23.144 117.304 23.032 116.77 22.808C116.237 22.5733 115.816 22.2533 115.506 21.848C115.197 21.432 115.026 20.9573 114.994 20.424H116.498C116.541 20.8613 116.744 21.2187 117.106 21.496C117.48 21.7733 117.965 21.912 118.562 21.912C119.117 21.912 119.554 21.7893 119.874 21.544C120.194 21.2987 120.354 20.9893 120.354 20.616C120.354 20.232 120.184 19.9493 119.842 19.768C119.501 19.576 118.973 19.3893 118.258 19.208C117.608 19.0373 117.074 18.8667 116.658 18.696C116.253 18.5147 115.901 18.2533 115.602 17.912C115.314 17.56 115.17 17.1013 115.17 16.536C115.17 16.088 115.304 15.6773 115.57 15.304C115.837 14.9307 116.216 14.6373 116.706 14.424C117.197 14.2 117.757 14.088 118.386 14.088C119.357 14.088 120.141 14.3333 120.738 14.824C121.336 15.3147 121.656 15.9867 121.698 16.84H120.242C120.21 16.3813 120.024 16.0133 119.682 15.736C119.352 15.4587 118.904 15.32 118.338 15.32C117.816 15.32 117.4 15.432 117.09 15.656C116.781 15.88 116.626 16.1733 116.626 16.536C116.626 16.824 116.717 17.064 116.898 17.256C117.09 17.4373 117.325 17.5867 117.602 17.704C117.89 17.8107 118.285 17.9333 118.786 18.072C119.416 18.2427 119.928 18.4133 120.322 18.584C120.717 18.744 121.053 18.9893 121.33 19.32C121.618 19.6507 121.768 20.0827 121.778 20.616C121.778 21.096 121.645 21.528 121.378 21.912C121.112 22.296 120.733 22.6 120.242 22.824C119.762 23.0373 119.208 23.144 118.578 23.144ZM125.29 15.848C125.578 15.3467 126.004 14.9307 126.57 14.6C127.146 14.2587 127.812 14.088 128.57 14.088C129.348 14.088 130.052 14.2747 130.682 14.648C131.322 15.0213 131.823 15.5493 132.186 16.232C132.548 16.904 132.73 17.688 132.73 18.584C132.73 19.4693 132.548 20.2587 132.186 20.952C131.823 21.6453 131.322 22.184 130.682 22.568C130.052 22.952 129.348 23.144 128.57 23.144C127.823 23.144 127.162 22.9787 126.586 22.648C126.02 22.3067 125.588 21.8853 125.29 21.384V27.16H123.834V14.232H125.29V15.848ZM131.242 18.584C131.242 17.9227 131.108 17.3467 130.842 16.856C130.575 16.3653 130.212 15.992 129.754 15.736C129.306 15.48 128.81 15.352 128.266 15.352C127.732 15.352 127.236 15.4853 126.778 15.752C126.33 16.008 125.967 16.3867 125.69 16.888C125.423 17.3787 125.29 17.9493 125.29 18.6C125.29 19.2613 125.423 19.8427 125.69 20.344C125.967 20.8347 126.33 21.2133 126.778 21.48C127.236 21.736 127.732 21.864 128.266 21.864C128.81 21.864 129.306 21.736 129.754 21.48C130.212 21.2133 130.575 20.8347 130.842 20.344C131.108 19.8427 131.242 19.256 131.242 18.584ZM142.646 18.28C142.646 18.5573 142.63 18.8507 142.598 19.16H135.59C135.643 20.024 135.937 20.7013 136.47 21.192C137.014 21.672 137.67 21.912 138.438 21.912C139.067 21.912 139.59 21.768 140.006 21.48C140.433 21.1813 140.731 20.7867 140.902 20.296H142.47C142.235 21.1387 141.766 21.8267 141.062 22.36C140.358 22.8827 139.483 23.144 138.438 23.144C137.606 23.144 136.859 22.9573 136.198 22.584C135.547 22.2107 135.035 21.6827 134.662 21C134.289 20.3067 134.102 19.5067 134.102 18.6C134.102 17.6933 134.283 16.8987 134.646 16.216C135.009 15.5333 135.515 15.0107 136.166 14.648C136.827 14.2747 137.585 14.088 138.438 14.088C139.27 14.088 140.006 14.2693 140.646 14.632C141.286 14.9947 141.777 15.496 142.118 16.136C142.47 16.7653 142.646 17.48 142.646 18.28ZM141.142 17.976C141.142 17.4213 141.019 16.9467 140.774 16.552C140.529 16.1467 140.193 15.8427 139.766 15.64C139.35 15.4267 138.886 15.32 138.374 15.32C137.638 15.32 137.009 15.5547 136.486 16.024C135.974 16.4933 135.681 17.144 135.606 17.976H141.142ZM144.024 18.6C144.024 17.6933 144.205 16.904 144.568 16.232C144.931 15.5493 145.432 15.0213 146.072 14.648C146.723 14.2747 147.464 14.088 148.296 14.088C149.373 14.088 150.259 14.3493 150.952 14.872C151.656 15.3947 152.12 16.12 152.344 17.048H150.776C150.627 16.5147 150.333 16.0933 149.896 15.784C149.469 15.4747 148.936 15.32 148.296 15.32C147.464 15.32 146.792 15.608 146.28 16.184C145.768 16.7493 145.512 17.5547 145.512 18.6C145.512 19.656 145.768 20.472 146.28 21.048C146.792 21.624 147.464 21.912 148.296 21.912C148.936 21.912 149.469 21.7627 149.896 21.464C150.323 21.1653 150.616 20.7387 150.776 20.184H152.344C152.109 21.08 151.64 21.8 150.936 22.344C150.232 22.8773 149.352 23.144 148.296 23.144C147.464 23.144 146.723 22.9573 146.072 22.584C145.432 22.2107 144.931 21.6827 144.568 21C144.205 20.3173 144.024 19.5173 144.024 18.6ZM155.039 12.808C154.761 12.808 154.527 12.712 154.335 12.52C154.143 12.328 154.047 12.0933 154.047 11.816C154.047 11.5387 154.143 11.304 154.335 11.112C154.527 10.92 154.761 10.824 155.039 10.824C155.305 10.824 155.529 10.92 155.711 11.112C155.903 11.304 155.999 11.5387 155.999 11.816C155.999 12.0933 155.903 12.328 155.711 12.52C155.529 12.712 155.305 12.808 155.039 12.808ZM155.743 14.232V23H154.287V14.232H155.743ZM157.68 18.584C157.68 17.688 157.862 16.904 158.224 16.232C158.587 15.5493 159.083 15.0213 159.712 14.648C160.352 14.2747 161.062 14.088 161.84 14.088C162.608 14.088 163.275 14.2533 163.84 14.584C164.406 14.9147 164.827 15.3307 165.104 15.832V14.232H166.576V23H165.104V21.368C164.816 21.88 164.384 22.3067 163.808 22.648C163.243 22.9787 162.582 23.144 161.824 23.144C161.046 23.144 160.342 22.952 159.712 22.568C159.083 22.184 158.587 21.6453 158.224 20.952C157.862 20.2587 157.68 19.4693 157.68 18.584ZM165.104 18.6C165.104 17.9387 164.971 17.3627 164.704 16.872C164.438 16.3813 164.075 16.008 163.616 15.752C163.168 15.4853 162.672 15.352 162.128 15.352C161.584 15.352 161.088 15.48 160.64 15.736C160.192 15.992 159.835 16.3653 159.568 16.856C159.302 17.3467 159.168 17.9227 159.168 18.584C159.168 19.256 159.302 19.8427 159.568 20.344C159.835 20.8347 160.192 21.2133 160.64 21.48C161.088 21.736 161.584 21.864 162.128 21.864C162.672 21.864 163.168 21.736 163.616 21.48C164.075 21.2133 164.438 20.8347 164.704 20.344C164.971 19.8427 165.104 19.2613 165.104 18.6ZM170.493 11.16V23H169.037V11.16H170.493ZM36.9528 30.808C36.6754 30.808 36.4408 30.712 36.2488 30.52C36.0568 30.328 35.9608 30.0933 35.9608 29.816C35.9608 29.5387 36.0568 29.304 36.2488 29.112C36.4408 28.92 36.6754 28.824 36.9528 28.824C37.2194 28.824 37.4434 28.92 37.6248 29.112C37.8168 29.304 37.9128 29.5387 37.9128 29.816C37.9128 30.0933 37.8168 30.328 37.6248 30.52C37.4434 30.712 37.2194 30.808 36.9528 30.808ZM37.6568 32.232V41H36.2008V32.232H37.6568ZM44.4103 32.072C45.4769 32.072 46.3409 32.3973 47.0023 33.048C47.6636 33.688 47.9943 34.616 47.9943 35.832V41H46.5543V36.04C46.5543 35.1653 46.3356 34.4987 45.8983 34.04C45.4609 33.5707 44.8636 33.336 44.1063 33.336C43.3383 33.336 42.7249 33.576 42.2663 34.056C41.8183 34.536 41.5943 35.2347 41.5943 36.152V41H40.1383V32.232H41.5943V33.48C41.8823 33.032 42.2716 32.6853 42.7623 32.44C43.2636 32.1947 43.8129 32.072 44.4103 32.072ZM52.1486 33.432V38.6C52.1486 39.0267 52.2393 39.3307 52.4206 39.512C52.602 39.6827 52.9166 39.768 53.3646 39.768H54.4366V41H53.1246C52.314 41 51.706 40.8133 51.3006 40.44C50.8953 40.0667 50.6926 39.4533 50.6926 38.6V33.432H49.5566V32.232H50.6926V30.024H52.1486V32.232H54.4366V33.432H52.1486ZM64.2008 36.28C64.2008 36.5573 64.1848 36.8507 64.1528 37.16H57.1448C57.1981 38.024 57.4914 38.7013 58.0248 39.192C58.5688 39.672 59.2248 39.912 59.9928 39.912C60.6221 39.912 61.1448 39.768 61.5608 39.48C61.9874 39.1813 62.2861 38.7867 62.4568 38.296H64.0248C63.7901 39.1387 63.3208 39.8267 62.6168 40.36C61.9128 40.8827 61.0381 41.144 59.9928 41.144C59.1608 41.144 58.4141 40.9573 57.7528 40.584C57.1021 40.2107 56.5901 39.6827 56.2168 39C55.8434 38.3067 55.6568 37.5067 55.6568 36.6C55.6568 35.6933 55.8381 34.8987 56.2008 34.216C56.5634 33.5333 57.0701 33.0107 57.7208 32.648C58.3821 32.2747 59.1394 32.088 59.9928 32.088C60.8248 32.088 61.5608 32.2693 62.2008 32.632C62.8408 32.9947 63.3314 33.496 63.6728 34.136C64.0248 34.7653 64.2008 35.48 64.2008 36.28ZM62.6968 35.976C62.6968 35.4213 62.5741 34.9467 62.3288 34.552C62.0834 34.1467 61.7474 33.8427 61.3208 33.64C60.9048 33.4267 60.4408 33.32 59.9288 33.32C59.1928 33.32 58.5634 33.5547 58.0408 34.024C57.5288 34.4933 57.2354 35.144 57.1608 35.976H62.6968ZM67.5786 33.656C67.8346 33.1547 68.1973 32.7653 68.6666 32.488C69.1466 32.2107 69.728 32.072 70.4106 32.072V33.576H70.0266C68.3946 33.576 67.5786 34.4613 67.5786 36.232V41H66.1226V32.232H67.5786V33.656ZM80.0914 36.28C80.0914 36.5573 80.0754 36.8507 80.0434 37.16H73.0354C73.0887 38.024 73.382 38.7013 73.9154 39.192C74.4594 39.672 75.1154 39.912 75.8834 39.912C76.5127 39.912 77.0354 39.768 77.4514 39.48C77.878 39.1813 78.1767 38.7867 78.3474 38.296H79.9154C79.6807 39.1387 79.2114 39.8267 78.5074 40.36C77.8034 40.8827 76.9287 41.144 75.8834 41.144C75.0514 41.144 74.3047 40.9573 73.6434 40.584C72.9927 40.2107 72.4807 39.6827 72.1074 39C71.734 38.3067 71.5474 37.5067 71.5474 36.6C71.5474 35.6933 71.7287 34.8987 72.0914 34.216C72.454 33.5333 72.9607 33.0107 73.6114 32.648C74.2727 32.2747 75.03 32.088 75.8834 32.088C76.7154 32.088 77.4514 32.2693 78.0914 32.632C78.7314 32.9947 79.222 33.496 79.5634 34.136C79.9154 34.7653 80.0914 35.48 80.0914 36.28ZM78.5874 35.976C78.5874 35.4213 78.4647 34.9467 78.2194 34.552C77.974 34.1467 77.638 33.8427 77.2114 33.64C76.7954 33.4267 76.3314 33.32 75.8194 33.32C75.0834 33.32 74.454 33.5547 73.9314 34.024C73.4194 34.4933 73.126 35.144 73.0514 35.976H78.5874ZM85.1173 41.144C84.4453 41.144 83.8426 41.032 83.3093 40.808C82.7759 40.5733 82.3546 40.2533 82.0453 39.848C81.7359 39.432 81.5653 38.9573 81.5333 38.424H83.0373C83.0799 38.8613 83.2826 39.2187 83.6453 39.496C84.0186 39.7733 84.5039 39.912 85.1013 39.912C85.6559 39.912 86.0933 39.7893 86.4133 39.544C86.7333 39.2987 86.8933 38.9893 86.8933 38.616C86.8933 38.232 86.7226 37.9493 86.3813 37.768C86.0399 37.576 85.5119 37.3893 84.7973 37.208C84.1466 37.0373 83.6133 36.8667 83.1973 36.696C82.7919 36.5147 82.4399 36.2533 82.1413 35.912C81.8533 35.56 81.7093 35.1013 81.7093 34.536C81.7093 34.088 81.8426 33.6773 82.1093 33.304C82.3759 32.9307 82.7546 32.6373 83.2453 32.424C83.7359 32.2 84.2959 32.088 84.9253 32.088C85.8959 32.088 86.6799 32.3333 87.2773 32.824C87.8746 33.3147 88.1946 33.9867 88.2373 34.84H86.7813C86.7493 34.3813 86.5626 34.0133 86.2213 33.736C85.8906 33.4587 85.4426 33.32 84.8773 33.32C84.3546 33.32 83.9386 33.432 83.6293 33.656C83.3199 33.88 83.1653 34.1733 83.1653 34.536C83.1653 34.824 83.2559 35.064 83.4373 35.256C83.6293 35.4373 83.8639 35.5867 84.1413 35.704C84.4293 35.8107 84.8239 35.9333 85.3253 36.072C85.9546 36.2427 86.4666 36.4133 86.8613 36.584C87.2559 36.744 87.5919 36.9893 87.8693 37.32C88.1573 37.6507 88.3066 38.0827 88.3173 38.616C88.3173 39.096 88.1839 39.528 87.9173 39.912C87.6506 40.296 87.2719 40.6 86.7813 40.824C86.3013 41.0373 85.7466 41.144 85.1173 41.144ZM92.1486 33.432V38.6C92.1486 39.0267 92.2393 39.3307 92.4206 39.512C92.602 39.6827 92.9166 39.768 93.3646 39.768H94.4366V41H93.1246C92.314 41 91.706 40.8133 91.3006 40.44C90.8953 40.0667 90.6926 39.4533 90.6926 38.6V33.432H89.5566V32.232H90.6926V30.024H92.1486V32.232H94.4366V33.432H92.1486ZM101.218 30.808C100.941 30.808 100.706 30.712 100.514 30.52C100.322 30.328 100.226 30.0933 100.226 29.816C100.226 29.5387 100.322 29.304 100.514 29.112C100.706 28.92 100.941 28.824 101.218 28.824C101.485 28.824 101.709 28.92 101.89 29.112C102.082 29.304 102.178 29.5387 102.178 29.816C102.178 30.0933 102.082 30.328 101.89 30.52C101.709 30.712 101.485 30.808 101.218 30.808ZM101.922 32.232V41H100.466V32.232H101.922ZM108.676 32.072C109.743 32.072 110.607 32.3973 111.268 33.048C111.929 33.688 112.26 34.616 112.26 35.832V41H110.82V36.04C110.82 35.1653 110.601 34.4987 110.164 34.04C109.727 33.5707 109.129 33.336 108.372 33.336C107.604 33.336 106.991 33.576 106.532 34.056C106.084 34.536 105.86 35.2347 105.86 36.152V41H104.404V32.232H105.86V33.48C106.148 33.032 106.537 32.6853 107.028 32.44C107.529 32.1947 108.079 32.072 108.676 32.072ZM120.36 29.16V41H118.904V29.16H120.36ZM130.841 36.28C130.841 36.5573 130.825 36.8507 130.793 37.16H123.785C123.839 38.024 124.132 38.7013 124.665 39.192C125.209 39.672 125.865 39.912 126.633 39.912C127.263 39.912 127.785 39.768 128.201 39.48C128.628 39.1813 128.927 38.7867 129.097 38.296H130.665C130.431 39.1387 129.961 39.8267 129.257 40.36C128.553 40.8827 127.679 41.144 126.633 41.144C125.801 41.144 125.055 40.9573 124.393 40.584C123.743 40.2107 123.231 39.6827 122.857 39C122.484 38.3067 122.297 37.5067 122.297 36.6C122.297 35.6933 122.479 34.8987 122.841 34.216C123.204 33.5333 123.711 33.0107 124.361 32.648C125.023 32.2747 125.78 32.088 126.633 32.088C127.465 32.088 128.201 32.2693 128.841 32.632C129.481 32.9947 129.972 33.496 130.313 34.136C130.665 34.7653 130.841 35.48 130.841 36.28ZM129.337 35.976C129.337 35.4213 129.215 34.9467 128.969 34.552C128.724 34.1467 128.388 33.8427 127.961 33.64C127.545 33.4267 127.081 33.32 126.569 33.32C125.833 33.32 125.204 33.5547 124.681 34.024C124.169 34.4933 123.876 35.144 123.801 35.976H129.337ZM132.219 36.584C132.219 35.688 132.401 34.904 132.763 34.232C133.126 33.5493 133.622 33.0213 134.251 32.648C134.891 32.2747 135.601 32.088 136.379 32.088C137.147 32.088 137.814 32.2533 138.379 32.584C138.945 32.9147 139.366 33.3307 139.643 33.832V32.232H141.115V41H139.643V39.368C139.355 39.88 138.923 40.3067 138.347 40.648C137.782 40.9787 137.121 41.144 136.363 41.144C135.585 41.144 134.881 40.952 134.251 40.568C133.622 40.184 133.126 39.6453 132.763 38.952C132.401 38.2587 132.219 37.4693 132.219 36.584ZM139.643 36.6C139.643 35.9387 139.51 35.3627 139.243 34.872C138.977 34.3813 138.614 34.008 138.155 33.752C137.707 33.4853 137.211 33.352 136.667 33.352C136.123 33.352 135.627 33.48 135.179 33.736C134.731 33.992 134.374 34.3653 134.107 34.856C133.841 35.3467 133.707 35.9227 133.707 36.584C133.707 37.256 133.841 37.8427 134.107 38.344C134.374 38.8347 134.731 39.2133 135.179 39.48C135.627 39.736 136.123 39.864 136.667 39.864C137.211 39.864 137.707 39.736 138.155 39.48C138.614 39.2133 138.977 38.8347 139.243 38.344C139.51 37.8427 139.643 37.2613 139.643 36.6ZM145.032 33.656C145.288 33.1547 145.65 32.7653 146.12 32.488C146.6 32.2107 147.181 32.072 147.864 32.072V33.576H147.48C145.848 33.576 145.032 34.4613 145.032 36.232V41H143.576V32.232H145.032V33.656ZM153.817 32.072C154.883 32.072 155.747 32.3973 156.409 33.048C157.07 33.688 157.401 34.616 157.401 35.832V41H155.961V36.04C155.961 35.1653 155.742 34.4987 155.305 34.04C154.867 33.5707 154.27 33.336 153.513 33.336C152.745 33.336 152.131 33.576 151.673 34.056C151.225 34.536 151.001 35.2347 151.001 36.152V41H149.545V32.232H151.001V33.48C151.289 33.032 151.678 32.6853 152.169 32.44C152.67 32.1947 153.219 32.072 153.817 32.072ZM160.531 30.808C160.254 30.808 160.019 30.712 159.827 30.52C159.635 30.328 159.539 30.0933 159.539 29.816C159.539 29.5387 159.635 29.304 159.827 29.112C160.019 28.92 160.254 28.824 160.531 28.824C160.798 28.824 161.022 28.92 161.203 29.112C161.395 29.304 161.491 29.5387 161.491 29.816C161.491 30.0933 161.395 30.328 161.203 30.52C161.022 30.712 160.798 30.808 160.531 30.808ZM161.235 32.232V41H159.779V32.232H161.235ZM167.988 32.072C169.055 32.072 169.919 32.3973 170.58 33.048C171.242 33.688 171.572 34.616 171.572 35.832V41H170.132V36.04C170.132 35.1653 169.914 34.4987 169.476 34.04C169.039 33.5707 168.442 33.336 167.684 33.336C166.916 33.336 166.303 33.576 165.844 34.056C165.396 34.536 165.172 35.2347 165.172 36.152V41H163.716V32.232H165.172V33.48C165.46 33.032 165.85 32.6853 166.34 32.44C166.842 32.1947 167.391 32.072 167.988 32.072ZM177.567 32.088C178.324 32.088 178.985 32.2533 179.551 32.584C180.127 32.9147 180.553 33.3307 180.831 33.832V32.232H182.303V41.192C182.303 41.992 182.132 42.7013 181.791 43.32C181.449 43.9493 180.959 44.44 180.319 44.792C179.689 45.144 178.953 45.32 178.111 45.32C176.959 45.32 175.999 45.048 175.231 44.504C174.463 43.96 174.009 43.2187 173.871 42.28H175.311C175.471 42.8133 175.801 43.24 176.303 43.56C176.804 43.8907 177.407 44.056 178.111 44.056C178.911 44.056 179.561 43.8053 180.063 43.304C180.575 42.8027 180.831 42.0987 180.831 41.192V39.352C180.543 39.864 180.116 40.2907 179.551 40.632C178.985 40.9733 178.324 41.144 177.567 41.144C176.788 41.144 176.079 40.952 175.439 40.568C174.809 40.184 174.313 39.6453 173.951 38.952C173.588 38.2587 173.407 37.4693 173.407 36.584C173.407 35.688 173.588 34.904 173.951 34.232C174.313 33.5493 174.809 33.0213 175.439 32.648C176.079 32.2747 176.788 32.088 177.567 32.088ZM180.831 36.6C180.831 35.9387 180.697 35.3627 180.431 34.872C180.164 34.3813 179.801 34.008 179.343 33.752C178.895 33.4853 178.399 33.352 177.855 33.352C177.311 33.352 176.815 33.48 176.367 33.736C175.919 33.992 175.561 34.3653 175.295 34.856C175.028 35.3467 174.895 35.9227 174.895 36.584C174.895 37.256 175.028 37.8427 175.295 38.344C175.561 38.8347 175.919 39.2133 176.367 39.48C176.815 39.736 177.311 39.864 177.855 39.864C178.399 39.864 178.895 39.736 179.343 39.48C179.801 39.2133 180.164 38.8347 180.431 38.344C180.697 37.8427 180.831 37.2613 180.831 36.6Z" fill="black"/>
<path d="M82.243 72.4443C83.8176 72.4443 85.094 71.1674 85.094 69.5922C85.094 68.017 83.8176 66.74 82.243 66.74C80.6685 66.74 79.3921 68.017 79.3921 69.5922C79.3921 71.1674 80.6685 72.4443 82.243 72.4443Z" fill="black"/>
<path d="M98.2361 69.5921C98.2361 67.3521 95.6077 65.4043 91.519 64.2356C92.5481 60.1034 92.1865 56.8477 90.2396 55.7347C88.2926 54.6077 85.3026 55.9295 82.243 58.8791C79.1835 55.9156 76.1935 54.6077 74.2465 55.7347C72.6333 56.6669 72.0353 59.0321 72.5777 62.3991C72.675 62.9973 72.8141 63.6095 72.9671 64.2495C68.8784 65.4182 66.25 67.366 66.25 69.606C66.25 71.846 68.8784 73.7799 72.9671 74.9625C72.8141 75.5886 72.675 76.2147 72.5777 76.813C72.0353 80.1799 72.6333 82.5451 74.2465 83.4773C74.7194 83.7556 75.2617 83.8947 75.8597 83.8947C77.2782 83.8947 78.9888 83.1156 80.8523 81.5991C81.3113 81.2234 81.7841 80.7921 82.243 80.3469C82.702 80.7921 83.1748 81.2234 83.6337 81.5991C85.4973 83.1156 87.2078 83.8947 88.6264 83.8947C89.2244 83.8947 89.7667 83.7556 90.2396 83.4773C91.8528 82.5451 92.4508 80.1799 91.9223 76.813C91.825 76.2147 91.6859 75.6025 91.5329 74.9625C95.6216 73.7938 98.25 71.846 98.25 69.606L98.2361 69.5921ZM89.5442 56.9312C90.7958 57.6547 91.074 60.2982 90.17 63.8877C88.8628 63.5817 87.4304 63.3591 85.9145 63.2199C85.0384 61.9817 84.1205 60.8547 83.2165 59.8669C85.3304 57.8217 87.2913 56.7086 88.6403 56.7086C88.9879 56.7086 89.2939 56.7782 89.5581 56.9312H89.5442ZM86.7072 72.166C86.2065 73.0147 85.692 73.8495 85.1635 74.6286C84.2317 74.6982 83.2583 74.7399 82.257 74.7399C81.2556 74.7399 80.2822 74.6982 79.3504 74.6286C78.8219 73.8495 78.2935 73.0147 77.8067 72.166C77.3061 71.3034 76.861 70.4547 76.4438 69.5921C76.861 68.7295 77.3061 67.8808 77.8067 67.0182C78.3074 66.1417 78.8358 65.3208 79.3504 64.5556C80.2822 64.486 81.2556 64.4443 82.257 64.4443C83.2583 64.4443 84.2317 64.486 85.1635 64.5556C85.692 65.3208 86.2065 66.1417 86.7072 67.0182C87.1939 67.8669 87.6529 68.7295 88.0701 69.5921C87.6668 70.4408 87.2218 71.2895 86.7072 72.166ZM88.7932 71.2199C89.1826 72.1521 89.5164 73.0564 89.7945 73.9469C88.9045 74.1417 87.9449 74.3225 86.9297 74.4477C87.2635 73.933 87.5833 73.4043 87.9032 72.8617C88.2231 72.3191 88.5151 71.7625 88.7932 71.2199ZM82.243 78.3156C81.6172 77.6338 80.9914 76.8825 80.3795 76.0756C80.9914 76.1034 81.6033 76.1173 82.243 76.1173C82.8828 76.1173 83.4947 76.1034 84.1066 76.0756C83.4947 76.8825 82.8689 77.6199 82.243 78.3156ZM77.5564 74.4477C76.5412 74.3225 75.5816 74.1556 74.6915 73.9469C74.9697 73.0564 75.3035 72.1521 75.6929 71.2199C75.971 71.7625 76.263 72.3191 76.5829 72.8617C76.9028 73.4043 77.2226 73.933 77.5564 74.4477ZM75.6929 67.9504C75.3035 67.0182 74.9697 66.1138 74.6915 65.2234C75.5816 65.0286 76.5412 64.8477 77.5564 64.7225C77.2226 65.2373 76.9028 65.766 76.5829 66.3086C76.263 66.8512 75.971 67.3938 75.6929 67.9504ZM82.243 60.8547C82.855 61.5225 83.4808 62.2738 84.1066 63.0947C83.4947 63.0669 82.8828 63.053 82.243 63.053C81.6033 63.053 80.9914 63.0669 80.3795 63.0947C81.0053 62.2738 81.6172 61.5225 82.243 60.8547ZM87.9032 66.3225C87.5833 65.7799 87.2635 65.2512 86.9297 64.7364C87.9449 64.8617 88.9045 65.0286 89.7945 65.2373C89.5303 66.1138 89.1965 67.0182 88.7932 67.9643C88.5151 67.4217 88.2091 66.8651 87.9032 66.3225ZM73.9406 62.1764C73.5095 59.4634 73.871 57.5573 74.9419 56.9451C75.2061 56.7921 75.5121 56.7225 75.8597 56.7225C77.2087 56.7225 79.1696 57.8356 81.2835 59.8808C80.3656 60.8686 79.4616 61.9956 78.5855 63.2338C77.0696 63.373 75.6372 63.5956 74.33 63.9017C74.177 63.3173 74.0518 62.733 73.9684 62.1904L73.9406 62.1764ZM67.6407 69.5921C67.6407 68.1451 69.7824 66.5869 73.3426 65.5712C73.7459 66.8651 74.2743 68.2147 74.9002 69.5921C74.2743 70.9556 73.7459 72.3051 73.3426 73.613C69.7963 72.5973 67.6407 71.053 67.6407 69.5921ZM79.9762 80.486C77.8484 82.2112 76.0127 82.8512 74.9419 82.2391C73.871 81.6269 73.5095 79.7069 73.9406 77.0077C74.024 76.4512 74.1631 75.8808 74.3022 75.2964C75.6094 75.6025 77.0418 75.8251 78.5577 75.9643C79.4338 77.1886 80.3378 78.3295 81.2556 79.3312C80.8245 79.7486 80.3934 80.1521 79.9623 80.4999L79.9762 80.486ZM90.5455 77.0077C90.9766 79.7208 90.6151 81.6269 89.5442 82.2391C88.4734 82.8512 86.6377 82.2112 84.5099 80.486C84.0788 80.1382 83.6477 79.7347 83.2165 79.3173C84.1483 78.3156 85.0523 77.1886 85.9145 75.9643C87.4304 75.8251 88.8628 75.6025 90.17 75.2964C90.323 75.8808 90.4482 76.4651 90.5316 77.0077H90.5455ZM91.1435 73.5991C90.7402 72.3051 90.2118 70.9556 89.5859 69.5782C90.2257 68.1869 90.7402 66.8373 91.1435 65.5573C94.7037 66.573 96.8454 68.1173 96.8454 69.5782C96.8454 71.0391 94.7037 72.5834 91.1435 73.5991Z" fill="black"/>
<path d="M69.5361 102L67.7841 98.82H67.2921V102H65.2401V93.576H68.6841C69.3481 93.576 69.9121 93.692 70.3761 93.924C70.8481 94.156 71.2001 94.476 71.4321 94.884C71.6641 95.284 71.7801 95.732 71.7801 96.228C71.7801 96.788 71.6201 97.288 71.3001 97.728C70.9881 98.168 70.5241 98.48 69.9081 98.664L71.8521 102H69.5361ZM67.2921 97.368H68.5641C68.9401 97.368 69.2201 97.276 69.4041 97.092C69.5961 96.908 69.6921 96.648 69.6921 96.312C69.6921 95.992 69.5961 95.74 69.4041 95.556C69.2201 95.372 68.9401 95.28 68.5641 95.28H67.2921V97.368ZM79.3802 98.544C79.3802 98.736 79.3682 98.936 79.3442 99.144H74.7002C74.7322 99.56 74.8642 99.88 75.0962 100.104C75.3362 100.32 75.6282 100.428 75.9722 100.428C76.4842 100.428 76.8402 100.212 77.0402 99.78H79.2242C79.1122 100.22 78.9082 100.616 78.6122 100.968C78.3242 101.32 77.9602 101.596 77.5202 101.796C77.0802 101.996 76.5882 102.096 76.0442 102.096C75.3882 102.096 74.8042 101.956 74.2922 101.676C73.7802 101.396 73.3802 100.996 73.0922 100.476C72.8042 99.956 72.6602 99.348 72.6602 98.652C72.6602 97.956 72.8002 97.348 73.0802 96.828C73.3682 96.308 73.7682 95.908 74.2802 95.628C74.7922 95.348 75.3802 95.208 76.0442 95.208C76.6922 95.208 77.2682 95.344 77.7722 95.616C78.2762 95.888 78.6682 96.276 78.9482 96.78C79.2362 97.284 79.3802 97.872 79.3802 98.544ZM77.2802 98.004C77.2802 97.652 77.1602 97.372 76.9202 97.164C76.6802 96.956 76.3802 96.852 76.0202 96.852C75.6762 96.852 75.3842 96.952 75.1442 97.152C74.9122 97.352 74.7682 97.636 74.7122 98.004H77.2802ZM80.0548 98.64C80.0548 97.952 80.1828 97.348 80.4388 96.828C80.7028 96.308 81.0588 95.908 81.5068 95.628C81.9548 95.348 82.4548 95.208 83.0068 95.208C83.4788 95.208 83.8908 95.304 84.2428 95.496C84.6028 95.688 84.8788 95.94 85.0708 96.252V95.304H87.1228V102H85.0708V101.052C84.8708 101.364 84.5908 101.616 84.2308 101.808C83.8788 102 83.4668 102.096 82.9948 102.096C82.4508 102.096 81.9548 101.956 81.5068 101.676C81.0588 101.388 80.7028 100.984 80.4388 100.464C80.1828 99.936 80.0548 99.328 80.0548 98.64ZM85.0708 98.652C85.0708 98.14 84.9268 97.736 84.6388 97.44C84.3588 97.144 84.0148 96.996 83.6068 96.996C83.1988 96.996 82.8508 97.144 82.5628 97.44C82.2828 97.728 82.1428 98.128 82.1428 98.64C82.1428 99.152 82.2828 99.56 82.5628 99.864C82.8508 100.16 83.1988 100.308 83.6068 100.308C84.0148 100.308 84.3588 100.16 84.6388 99.864C84.9268 99.568 85.0708 99.164 85.0708 98.652ZM88.1993 98.652C88.1993 97.956 88.3393 97.348 88.6193 96.828C88.9073 96.308 89.3033 95.908 89.8073 95.628C90.3193 95.348 90.9033 95.208 91.5593 95.208C92.3993 95.208 93.0993 95.428 93.6593 95.868C94.2273 96.308 94.5993 96.928 94.7753 97.728H92.5913C92.4073 97.216 92.0513 96.96 91.5233 96.96C91.1473 96.96 90.8473 97.108 90.6233 97.404C90.3993 97.692 90.2873 98.108 90.2873 98.652C90.2873 99.196 90.3993 99.616 90.6233 99.912C90.8473 100.2 91.1473 100.344 91.5233 100.344C92.0513 100.344 92.4073 100.088 92.5913 99.576H94.7753C94.5993 100.36 94.2273 100.976 93.6593 101.424C93.0913 101.872 92.3913 102.096 91.5593 102.096C90.9033 102.096 90.3193 101.956 89.8073 101.676C89.3033 101.396 88.9073 100.996 88.6193 100.476C88.3393 99.956 88.1993 99.348 88.1993 98.652ZM99.6049 100.26V102H98.5609C97.8169 102 97.2369 101.82 96.8209 101.46C96.4049 101.092 96.1969 100.496 96.1969 99.672V97.008H95.3809V95.304H96.1969V93.672H98.2489V95.304H99.5929V97.008H98.2489V99.696C98.2489 99.896 98.2969 100.04 98.3929 100.128C98.4889 100.216 98.6489 100.26 98.8729 100.26H99.6049Z" fill="black"/>
<path d="M138.945 56.6667L135.251 63.0667L131.555 56.6667H119.25L135.251 84.3805L151.25 56.6667H138.945Z" fill="#41B883"/>
<path d="M138.945 56.6667L135.251 63.0667L131.555 56.6667H125.65L135.251 73.2945L144.85 56.6667H138.945Z" fill="#34495E"/>
<path d="M124.976 93.576L121.988 102H119.42L116.432 93.576H118.616L120.704 99.936L122.804 93.576H124.976ZM132.446 95.304V102H130.394V101.088C130.186 101.384 129.902 101.624 129.542 101.808C129.19 101.984 128.798 102.072 128.366 102.072C127.854 102.072 127.402 101.96 127.01 101.736C126.618 101.504 126.314 101.172 126.098 100.74C125.882 100.308 125.774 99.8 125.774 99.216V95.304H127.814V98.94C127.814 99.388 127.93 99.736 128.162 99.984C128.394 100.232 128.706 100.356 129.098 100.356C129.498 100.356 129.814 100.232 130.046 99.984C130.278 99.736 130.394 99.388 130.394 98.94V95.304H132.446ZM140.232 98.544C140.232 98.736 140.22 98.936 140.196 99.144H135.552C135.584 99.56 135.716 99.88 135.948 100.104C136.188 100.32 136.48 100.428 136.824 100.428C137.336 100.428 137.692 100.212 137.892 99.78H140.076C139.964 100.22 139.76 100.616 139.464 100.968C139.176 101.32 138.812 101.596 138.372 101.796C137.932 101.996 137.44 102.096 136.896 102.096C136.24 102.096 135.656 101.956 135.144 101.676C134.632 101.396 134.232 100.996 133.944 100.476C133.656 99.956 133.512 99.348 133.512 98.652C133.512 97.956 133.652 97.348 133.932 96.828C134.22 96.308 134.62 95.908 135.132 95.628C135.644 95.348 136.232 95.208 136.896 95.208C137.544 95.208 138.12 95.344 138.624 95.616C139.128 95.888 139.52 96.276 139.8 96.78C140.088 97.284 140.232 97.872 140.232 98.544ZM138.132 98.004C138.132 97.652 138.012 97.372 137.772 97.164C137.532 96.956 137.232 96.852 136.872 96.852C136.528 96.852 136.236 96.952 135.996 97.152C135.764 97.352 135.62 97.636 135.564 98.004H138.132ZM142.274 102.096C141.914 102.096 141.618 101.992 141.386 101.784C141.162 101.568 141.05 101.304 141.05 100.992C141.05 100.672 141.162 100.404 141.386 100.188C141.618 99.972 141.914 99.864 142.274 99.864C142.626 99.864 142.914 99.972 143.138 100.188C143.37 100.404 143.486 100.672 143.486 100.992C143.486 101.304 143.37 101.568 143.138 101.784C142.914 101.992 142.626 102.096 142.274 102.096ZM145.721 94.608C145.361 94.608 145.065 94.504 144.833 94.296C144.609 94.08 144.497 93.816 144.497 93.504C144.497 93.184 144.609 92.92 144.833 92.712C145.065 92.496 145.361 92.388 145.721 92.388C146.073 92.388 146.361 92.496 146.585 92.712C146.817 92.92 146.933 93.184 146.933 93.504C146.933 93.816 146.817 94.08 146.585 94.296C146.361 94.504 146.073 94.608 145.721 94.608ZM146.753 102.864C146.753 103.688 146.545 104.28 146.129 104.64C145.713 105.008 145.133 105.192 144.389 105.192H143.585V103.452H144.077C144.301 103.452 144.461 103.408 144.557 103.32C144.653 103.232 144.701 103.088 144.701 102.888V95.304H146.753V102.864ZM150.952 102.096C150.368 102.096 149.848 101.996 149.392 101.796C148.936 101.596 148.576 101.324 148.312 100.98C148.048 100.628 147.9 100.236 147.868 99.804H149.896C149.92 100.036 150.028 100.224 150.22 100.368C150.412 100.512 150.648 100.584 150.928 100.584C151.184 100.584 151.38 100.536 151.516 100.44C151.66 100.336 151.732 100.204 151.732 100.044C151.732 99.852 151.632 99.712 151.432 99.624C151.232 99.528 150.908 99.424 150.46 99.312C149.98 99.2 149.58 99.084 149.26 98.964C148.94 98.836 148.664 98.64 148.432 98.376C148.2 98.104 148.084 97.74 148.084 97.284C148.084 96.9 148.188 96.552 148.396 96.24C148.612 95.92 148.924 95.668 149.332 95.484C149.748 95.3 150.24 95.208 150.808 95.208C151.648 95.208 152.308 95.416 152.788 95.832C153.276 96.248 153.556 96.8 153.628 97.488H151.732C151.7 97.256 151.596 97.072 151.42 96.936C151.252 96.8 151.028 96.732 150.748 96.732C150.508 96.732 150.324 96.78 150.196 96.876C150.068 96.964 150.004 97.088 150.004 97.248C150.004 97.44 150.104 97.584 150.304 97.68C150.512 97.776 150.832 97.872 151.264 97.968C151.76 98.096 152.164 98.224 152.476 98.352C152.788 98.472 153.06 98.672 153.292 98.952C153.532 99.224 153.656 99.592 153.664 100.056C153.664 100.448 153.552 100.8 153.328 101.112C153.112 101.416 152.796 101.656 152.38 101.832C151.972 102.008 151.496 102.096 150.952 102.096Z" fill="black"/>
<defs>
<filter id="filter0_d_188130_2381" x="19.25" y="0" width="177" height="133.939" filterUnits="userSpaceOnUse" color-interpolation-filters="sRGB">
<feFlood flood-opacity="0" result="BackgroundImageFix"/>
<feColorMatrix in="SourceAlpha" type="matrix" values="0 0 0 0 0 0 0 0 0 0 0 0 0 0 0 0 0 0 127 0" result="hardAlpha"/>
<feOffset dy="4"/>
<feGaussianBlur stdDeviation="2"/>
<feComposite in2="hardAlpha" operator="out"/>
<feColorMatrix type="matrix" values="0 0 0 0 0 0 0 0 0 0 0 0 0 0 0 0 0 0 0.25 0"/>
<feBlend mode="normal" in2="BackgroundImageFix" result="effect1_dropShadow_188130_2381"/>
<feBlend mode="normal" in="SourceGraphic" in2="effect1_dropShadow_188130_2381" result="shape"/>
</filter>
<linearGradient id="paint0_linear_188130_2381" x1="107.75" y1="14.4358" x2="107.758" y2="102.358" gradientUnits="userSpaceOnUse">
<stop stop-color="white"/>
<stop offset="1" stop-color="#EAF0FF"/>
</linearGradient>
<clipPath id="clip0_188130_2381">
<rect width="76.0417" height="75" fill="white" transform="translate(0 113.125)"/>
</clipPath>
</defs>
</svg>
