<?xml version="1.0" encoding="UTF-8"?>
<!-- Generator: visioncortex VTracer 0.6.4 -->
<svg version="1.1" xmlns="http://www.w3.org/2000/svg" width="33" height="40">
<path d="M0 0 C4.48 2.16 7.18 4.93 10 9 C11.93 14.79 11.58 19.38 9.12 24.88 C5.93 30.77 1.44 36.06 -4 40 C-8.23 39.78 -11.18 36.96 -14 34 C-20.16 25.97 -22.79 21.2 -22 11 C-18.31 0.32 -10.09 -0.95 0 0 Z " fill="#5786FE" transform="translate(22,0)"/>
<path d="M0 0 C4.92 2.8 8.16 5.49 10 11 C10.75 18.15 9.01 23.05 5 29 C1.95 32.66 -1.13 36.2 -5 39 C-9.31 38.86 -11.92 35.73 -15 33 C-14.34 32.36 -13.68 31.72 -13 31.06 C-12 30.05 -11 29.02 -10 28 C-9.33 27.31 -8.65 26.62 -7.96 25.91 C-0.21 17.65 0.33 11.04 0 0 Z " fill="#3E73FA" transform="translate(23,1)"/>
<path d="M0 0 C2.75 2.75 2.97 4.72 3.38 8.56 C3.17 18.13 -3.23 24.8 -9.6 31.26 C-12 33 -12 33 -14.31 32.77 C-15.15 32.39 -15.15 32.39 -16 32 C-16 28 -16 28 -14.68 26.39 C-14.08 25.87 -13.49 25.35 -12.88 24.81 C-5.45 17.81 -1.19 10.14 0 0 Z " fill="#1E5AF4" transform="translate(30,7)"/>
<path d="M0 0 C1.97 1.19 1.97 1.19 4 3 C4.5 5.34 4.5 5.34 4.44 7.94 C4.44 8.79 4.43 9.65 4.43 10.53 C3.93 13.4 2.9 14.83 1 17 C0.34 16.67 -0.32 16.34 -1 16 C-0.75 14.82 -0.75 14.82 -0.5 13.62 C0.13 9.06 0.08 4.6 0 0 Z " fill="#3169F8" transform="translate(26,3)"/>
<path d="M0 0 C1.2 3.61 0.79 4.23 -0.81 7.56 C-4.05 13.81 -8.85 18.3 -14 23 C-14.66 22.67 -15.32 22.34 -16 22 C-15.48 21.5 -14.96 21.01 -14.43 20.5 C-8.36 14.59 -3.38 9.33 -1 1 C-0.67 0.67 -0.34 0.34 0 0 Z " fill="#1453F3" transform="translate(32,17)"/>
<path d="M0 0 C0.7 1.75 0.7 1.75 1 4 C-0.26 6 -0.26 6 -2.12 8 C-2.77 8.69 -3.41 9.38 -4.07 10.09 C-6.26 12.25 -8.52 14.19 -11 16 C-11.66 15.67 -12.32 15.34 -13 15 C-12.48 14.5 -11.96 14.01 -11.43 13.5 C-7.07 9.25 -3.37 5.06 0 0 Z " fill="#2A64F7" transform="translate(26,21)"/>
<path d="M0 0 C2.5 0.12 2.5 0.12 3.5 1.12 C3.62 3.62 3.62 3.62 3.5 6.12 C2.5 7.12 2.5 7.12 0 7.25 C-2.5 7.12 -2.5 7.12 -3.5 6.12 C-3.62 3.62 -3.62 3.62 -3.5 1.12 C-2.5 0.12 -2.5 0.12 0 0 Z " fill="#73B9E5" transform="translate(16.5,10.875)"/>
</svg>
